<svg xmlns="http://www.w3.org/2000/svg" xmlns:xlink="http://www.w3.org/1999/xlink" fill="none" version="1.1" width="15" height="15" viewBox="0 0 15 15"><g><path d="M12.3214,11.5385L6.42857,11.5385C6.1327,11.5385,5.89286,11.7968,5.89286,12.1154C5.89286,12.434,6.1327,12.6923,6.42857,12.6923L12.3214,12.6923C12.6173,12.6923,12.8571,12.434,12.8571,12.1154C12.8571,11.7968,12.6173,11.5385,12.3214,11.5385ZM12.3214,6.92308L6.42857,6.92308C6.1327,6.92308,5.89286,7.18137,5.89286,7.5C5.89286,7.81863,6.1327,8.07692,6.42857,8.07692L12.3214,8.07692C12.6173,8.07692,12.8571,7.81863,12.8571,7.5C12.8571,7.18137,12.6173,6.92308,12.3214,6.92308ZM12.3214,2.30769L6.42857,2.30769C6.1327,2.30769,5.89286,2.56599,5.89286,2.88462C5.89286,3.20324,6.1327,3.46154,6.42857,3.46154L12.3214,3.46154C12.6173,3.46154,12.8571,3.20324,12.8571,2.88462C12.8571,2.56599,12.6173,2.30769,12.3214,2.30769ZM4.01786,11.5385L2.94643,11.5385C2.65056,11.5385,2.41071,11.7968,2.41071,12.1154C2.41071,12.434,2.65056,12.6923,2.94643,12.6923L4.01786,12.6923C4.31372,12.6923,4.55357,12.434,4.55357,12.1154C4.55357,11.7968,4.31372,11.5385,4.01786,11.5385ZM4.01786,6.92308L2.94643,6.92308C2.65056,6.92308,2.41071,7.18137,2.41071,7.5C2.41071,7.81863,2.65056,8.07692,2.94643,8.07692L4.01786,8.07692C4.31372,8.07692,4.55357,7.81863,4.55357,7.5C4.55357,7.18137,4.31372,6.92308,4.01786,6.92308ZM4.01786,2.30769L2.94643,2.30769C2.65056,2.30769,2.41071,2.56599,2.41071,2.88462C2.41071,3.20324,2.65056,3.46154,2.94643,3.46154L4.01786,3.46154C4.31372,3.46154,4.55357,3.20324,4.55357,2.88462C4.55357,2.56599,4.31372,2.30769,4.01786,2.30769ZM13.3929,0L1.60714,0C0.719542,0,0,0.774892,0,1.73077L0,13.2692C0,14.2251,0.719542,15,1.60714,15L13.3929,15C14.2805,15,15,14.2251,15,13.2692L15,1.73077C15,0.774892,14.2805,0,13.3929,0ZM13.9286,13.2692C13.9286,13.5879,13.6887,13.8462,13.3929,13.8462L1.60714,13.8462C1.31128,13.8462,1.07143,13.5879,1.07143,13.2692L1.07143,10.3846L12.3214,10.3846C12.6173,10.3846,12.8571,10.1263,12.8571,9.80769C12.8571,9.48907,12.6173,9.23077,12.3214,9.23077L1.07143,9.23077L1.07143,5.76923L12.3214,5.76923C12.6173,5.76923,12.8571,5.51093,12.8571,5.19231C12.8571,4.87368,12.6173,4.61538,12.3214,4.61538L1.07143,4.61538L1.07143,1.73077C1.07143,1.41214,1.31128,1.15385,1.60714,1.15385L13.3929,1.15385C13.6887,1.15385,13.9286,1.41214,13.9286,1.73077L13.9286,13.2692Z" fill="#77D1FA" fill-opacity="1"/></g></svg>