<svg xmlns="http://www.w3.org/2000/svg" xmlns:xlink="http://www.w3.org/1999/xlink" fill="none" version="1.1" width="16.25" height="17.499980926513672" viewBox="0 0 16.25 17.499980926513672"><g><path d="M8.75003,0.625C8.75003,0.279822,8.47021,0,8.12503,0C7.77986,0,7.50003,0.279822,7.50003,0.625L7.50003,1.875C7.50003,2.22018,7.77986,2.5,8.12503,2.5C8.47021,2.5,8.75003,2.22018,8.75003,1.875L8.75003,0.625ZM12.4819,1.07368C12.7875,1.2341,12.9053,1.61191,12.7449,1.91755L12.164,3.02437C12.0035,3.33001,11.6257,3.44774,11.3201,3.28732C11.0145,3.12691,10.8967,2.7491,11.0571,2.44346L11.638,1.33664C11.7985,1.031,12.1763,0.913271,12.4819,1.07368ZM3.76822,1.07414C4.07386,0.913731,4.45167,1.03146,4.61208,1.3371L5.19298,2.44392C5.3534,2.74956,5.23567,3.12737,4.93003,3.28778C4.62439,3.4482,4.24658,3.33047,4.08616,3.02483L3.50526,1.91801C3.34485,1.61237,3.46258,1.23456,3.76822,1.07414ZM15.681,4.91864C15.9651,4.72256,16.0365,4.33331,15.8404,4.04923C15.6443,3.76516,15.255,3.69383,14.971,3.88991L13.9422,4.59999C13.6582,4.79607,13.5868,5.18532,13.7829,5.4694C13.979,5.75347,14.3682,5.8248,14.6523,5.62872L15.681,4.91864ZM0.409459,4.04952C0.605542,3.76544,0.994789,3.69411,1.27887,3.8902L2.30759,4.60028C2.59167,4.79636,2.663,5.18561,2.46692,5.46968C2.27084,5.75376,1.88159,5.82509,1.59751,5.62901L0.568784,4.91893C0.284708,4.72284,0.213376,4.3336,0.409459,4.04952ZM2.5,10.625C2.5,7.51838,5.0184,4.99998,8.125,4.99998C11.2316,4.99998,13.75,7.51838,13.75,10.625L13.75,16.25L15.625,16.25C15.9702,16.25,16.25,16.5298,16.25,16.875C16.25,17.2202,15.9702,17.5,15.625,17.5L0.625,17.5C0.279822,17.5,0,17.2202,0,16.875C0,16.5298,0.279822,16.25,0.625,16.25L2.5,16.25L2.5,10.625ZM10.4288,10.9857L9.09334,10.9857C8.97301,10.9857,8.88104,10.8934,8.90061,10.7929L9.37609,8.31855C9.40739,8.15648,9.17161,8.0584,9.03953,8.17809L5.67795,11.2342C5.56152,11.3406,5.64957,11.5143,5.82078,11.5143L7.15622,11.5143C7.27656,11.5143,7.36852,11.6065,7.34896,11.7071L6.87348,14.1814C6.84217,14.3435,7.07796,14.4416,7.21003,14.3219L10.5716,11.2658C10.689,11.1594,10.6,10.9857,10.4288,10.9857Z" fill-rule="evenodd" fill="#77D1FA" fill-opacity="1"/></g></svg>