<svg xmlns="http://www.w3.org/2000/svg" xmlns:xlink="http://www.w3.org/1999/xlink" fill="none" version="1.1" width="20" height="20" viewBox="0 0 20 20"><g><g></g><g transform="matrix(0.7071067690849304,0.7071067690849304,-0.7071067690849304,0.7071067690849304,3.000152556172054,-7.041836703831848)"><g style="opacity:0.6000000238418579;"><rect x="10.500081062316895" y="0.6005859375" width="13" height="13" rx="0" fill-opacity="0" stroke-opacity="0.6000000238418579" stroke="#14528A" fill="none" stroke-width="1"/></g><g><rect x="14.000081062316895" y="4.1005859375" width="6" height="6" rx="0" fill="#23ABF4" fill-opacity="1"/></g><g><path d="M13.000081062316895,0.1005859375L10.000081062316895,0.1005859375L10.000081062316895,3.1005859375L11.000081062316895,3.1005859375L11.000081062316895,1.1005859375L13.000081062316895,1.1005859375L13.000081062316895,0.1005859375ZM21.000081062316895,1.1005859375L21.000081062316895,0.1005859375L24.000081062316895,0.1005859375L24.000081062316895,3.1005859375L23.000081062316895,3.1005859375L23.000081062316895,1.1005859375L21.000081062316895,1.1005859375ZM21.000081062316895,13.1005859375L23.000081062316895,13.1005859375L23.000081062316895,11.1005859375L24.000081062316895,11.1005859375L24.000081062316895,14.1005859375L21.000081062316895,14.1005859375L21.000081062316895,13.1005859375ZM11.000081062316895,11.1005859375L11.000081062316895,13.1005859375L13.000081062316895,13.1005859375L13.000081062316895,14.1005859375L10.000081062316895,14.1005859375L10.000081062316895,11.1005859375L11.000081062316895,11.1005859375Z" fill-rule="evenodd" fill="#9FE5FC" fill-opacity="1"/></g></g></g></svg>