<svg xmlns="http://www.w3.org/2000/svg" xmlns:xlink="http://www.w3.org/1999/xlink" fill="none" version="1.1" width="17.5" height="15.616165161132812" viewBox="0 0 17.5 15.616165161132812"><g><path d="M7.86547,2.67087C7.03533,3.57777,6.22438,4.68258,5.5024,5.93309C4.78042,7.18358,4.22911,8.43828,3.85877,9.61065C3.5725,9.51776,3.304,9.41743,3.05521,9.3108C2.35613,9.0112,1.87025,8.68654,1.5773,8.38971C1.28966,8.09825,1.25,7.90314,1.25,7.80808C1.25,7.71302,1.28966,7.51792,1.5773,7.22646C1.87025,6.92963,2.35613,6.60497,3.05521,6.30536C3.51605,6.10786,4.04454,5.93194,4.6283,5.78491C4.67831,5.69535,4.72914,5.60584,4.78077,5.51641C5.01931,5.10325,5.2679,4.70418,5.52436,4.32112C2.28825,4.87143,0,6.22523,0,7.80808C0,9.04154,1.38953,10.1359,3.53432,10.8194C3.0538,13.0185,3.30678,14.7691,4.37499,15.3858C5.30549,15.923,6.67176,15.4944,8.1086,14.3731C7.81133,14.0978,7.51519,13.7985,7.22266,13.4773L7.20399,13.4913C6.59498,13.9469,6.07088,14.2054,5.66734,14.3106C5.27111,14.414,5.08232,14.3508,4.99999,14.3033C4.91767,14.2557,4.76853,14.1239,4.65994,13.729C4.54935,13.3269,4.51113,12.7438,4.6012,11.9886C4.63326,11.7198,4.68062,11.4371,4.74331,11.1427C5.94378,11.4082,7.30604,11.5581,8.75,11.5581C10.194,11.5581,11.5562,11.4082,12.7567,11.1427C12.8194,11.4371,12.8667,11.7198,12.8988,11.9885C12.9889,12.7438,12.9507,13.3269,12.8401,13.729C12.7315,14.1238,12.5823,14.2557,12.5,14.3033C12.4177,14.3508,12.2289,14.414,11.8327,14.3106C11.4291,14.2053,10.905,13.9469,10.296,13.4913C9.89455,13.1909,9.47795,12.8212,9.05874,12.3892C8.95618,12.3906,8.85325,12.3914,8.74998,12.3914C8.2729,12.3914,7.803,12.3756,7.34303,12.345C9.43767,14.8725,11.7542,16.1772,13.125,15.3858C14.1932,14.7691,14.4462,13.0185,13.9657,10.8194C16.1105,10.1359,17.5,9.04154,17.5,7.80808C17.5,6.73364,16.4456,5.76474,14.7562,5.08104C14.6664,5.47611,14.5553,5.88225,14.4233,6.2962L14.4448,6.30537C15.1439,6.60497,15.6297,6.92963,15.9227,7.22646C16.2103,7.51792,16.25,7.71302,16.25,7.80808C16.25,7.90315,16.2103,8.09825,15.9227,8.38971C15.6297,8.68654,15.1439,9.0112,14.4448,9.3108C14.196,9.41743,13.9275,9.51776,13.6412,9.61065C13.2709,8.43828,12.7196,7.18358,11.9976,5.93308C11.2756,4.68258,10.4647,3.57777,9.63454,2.67087C9.85812,2.4694,10.0793,2.28704,10.296,2.1249C10.905,1.66928,11.4291,1.41082,11.8326,1.30554C12.2289,1.20216,12.4177,1.26537,12.5,1.3129C12.5823,1.36043,12.7315,1.49232,12.84,1.88716C12.9506,2.28928,12.9889,2.87239,12.8988,3.62762C12.8394,4.12546,12.7275,4.67111,12.563,5.25017C12.6155,5.33827,12.6676,5.42704,12.7193,5.51647C12.9578,5.92963,13.1791,6.34445,13.3826,6.75809C14.5241,3.68037,14.4958,1.02179,13.125,0.230366C12.0568,-0.386361,10.4143,0.269822,8.75,1.78554C7.08573,0.269816,5.44321,-0.38637,4.37501,0.230357C3.44452,0.767579,3.1326,2.16513,3.38524,3.97012C3.77225,3.8503,4.17956,3.7435,4.60402,3.65078L4.60122,3.62761C4.51115,2.87238,4.54937,2.28927,4.65996,1.88715C4.76855,1.49232,4.91768,1.36042,5.00001,1.31289C5.08234,1.26536,5.27113,1.20215,5.66736,1.30553C6.0709,1.41081,6.595,1.66927,7.20401,2.12489C7.42074,2.28703,7.64188,2.4694,7.86547,2.67087ZM6.58493,6.55809C5.91182,7.72395,5.40632,8.87631,5.0676,9.93411C6.15304,10.1697,7.40377,10.3081,8.75,10.3081C10.0962,10.3081,11.347,10.1697,12.4324,9.93411C12.0937,8.87631,11.5882,7.72394,10.9151,6.55808C10.242,5.39221,9.49673,4.37825,8.75,3.55602C8.00327,4.37825,7.25804,5.39222,6.58493,6.55809ZM8.75001,9.47476C7.83631,9.47476,6.97239,9.40818,6.18246,9.29046C6.47548,8.5475,6.84977,7.76605,7.30662,6.97477C7.76347,6.18349,8.25307,5.46861,8.74999,4.84338C9.2469,5.46862,9.73652,6.1835,10.1934,6.97479C10.6502,7.76607,11.0245,8.54751,11.3175,9.29046C10.5276,9.40818,9.6637,9.47476,8.75001,9.47476Z" fill-rule="evenodd" fill="#77D1FA" fill-opacity="1"/></g></svg>