<svg xmlns="http://www.w3.org/2000/svg" xmlns:xlink="http://www.w3.org/1999/xlink" fill="none" version="1.1" width="17.5" height="15" viewBox="0 0 17.5 15"><g><path d="M8.5625,3.93811L8.5625,6.25L10.1875,6.25L10.1875,3.93811L12.5,3.93811L12.5,2.31311L10.1875,2.31311L10.1875,0L8.5625,0L8.5625,2.31311L6.25,2.31311L6.25,3.93811L8.5625,3.93811ZM0,14.375L0,1.875C0,1.52982,0.279822,1.25,0.625,1.25C0.970178,1.25,1.25,1.52982,1.25,1.875L1.25,8.75L16.25,8.75C16.9404,8.75,17.5,9.30964,17.5,10L17.5,14.375C17.5,14.7202,17.2202,15,16.875,15C16.5298,15,16.25,14.7202,16.25,14.375L16.25,12.5L1.25,12.5L1.25,14.375C1.25,14.7202,0.970178,15,0.625,15C0.279822,15,0,14.7202,0,14.375ZM2.84414,5.85261C2.44751,5.5198,1.85618,5.57153,1.52336,5.96817C1.19055,6.3648,1.24228,6.95613,1.63892,7.28895L3.07525,8.49418C3.47188,8.82699,4.06322,8.77526,4.39603,8.37862C4.72885,7.98199,4.67711,7.39066,4.28048,7.05784L2.84414,5.85261Z" fill-rule="evenodd" fill="#FFFFFF" fill-opacity="1"/></g></svg>