<svg xmlns="http://www.w3.org/2000/svg" xmlns:xlink="http://www.w3.org/1999/xlink" fill="none" version="1.1" width="259" height="137.4545440673828" viewBox="0 0 259 137.4545440673828"><defs><clipPath id="master_svg0_19_00362"><rect x="0" y="0" width="259" height="137.4545440673828" rx="0"/></clipPath><mask id="master_svg1_19_00369" style="mask-type:alpha" maskUnits="userSpaceOnUse"><g><path d="M171.85576467773438,4.72018L171.85576467773438,97.7746L166.43954467773438,93.0545L166.43954467773438,0" fill-rule="evenodd" fill="#FFFFFF" fill-opacity="1"/></g></mask><mask id="master_svg2_19_00373" style="mask-type:alpha" maskUnits="userSpaceOnUse"><g><path d="M137.55224609375,0L166.43954609375,0L171.85574609374999,4.72014L142.66789609375,4.72014" fill-rule="evenodd" fill="#FFFFFF" fill-opacity="1"/></g></mask><filter id="master_svg3_19_00377" filterUnits="objectBoundingBox" color-interpolation-filters="sRGB" x="0" y="0" width="28.886886596679688" height="93.05432891845703"><feFlood flood-opacity="0" result="BackgroundImageFix"/><feBlend mode="normal" in="SourceGraphic" in2="BackgroundImageFix" result="shape"/><feColorMatrix in="SourceAlpha" type="matrix" result="hardAlpha" values="0 0 0 0 0 0 0 0 0 0 0 0 0 0 0 0 0 0 127 0"/><feOffset dy="5" dx="0"/><feGaussianBlur stdDeviation="7"/><feComposite in2="hardAlpha" operator="arithmetic" k2="-1" k3="1"/><feColorMatrix type="matrix" values="0 0 0 0 0 0 0 0 0 0.6627449989318848 0 0 0 0 1 0 0 0 0.20000000298023224 0"/><feBlend mode="normal" in2="shape" result="effect1_innerShadow"/></filter><filter id="master_svg4_19_00380" filterUnits="objectBoundingBox" color-interpolation-filters="sRGB" x="0" y="0" width="29.895309448242188" height="51.61486053466797"><feFlood flood-opacity="0" result="BackgroundImageFix"/><feBlend mode="normal" in="SourceGraphic" in2="BackgroundImageFix" result="shape"/><feColorMatrix in="SourceAlpha" type="matrix" result="hardAlpha" values="0 0 0 0 0 0 0 0 0 0 0 0 0 0 0 0 0 0 127 0"/><feOffset dy="5" dx="0"/><feGaussianBlur stdDeviation="7"/><feComposite in2="hardAlpha" operator="arithmetic" k2="-1" k3="1"/><feColorMatrix type="matrix" values="0 0 0 0 0 0 0 0 0 0.6627449989318848 0 0 0 0 1 0 0 0 0.20000000298023224 0"/><feBlend mode="normal" in2="shape" result="effect1_innerShadow"/></filter><mask id="master_svg5_19_00387" style="mask-type:alpha" maskUnits="userSpaceOnUse"><g><path d="M199.482625625,57.7053134375L199.482625625,109.9901734375L189.916015625,103.9571734375L189.916015625,52.3427734375" fill-rule="evenodd" fill="#FFFFFF" fill-opacity="1"/></g></mask><mask id="master_svg6_19_00390" style="mask-type:alpha" maskUnits="userSpaceOnUse"><g><path d="M229.37862171875,57.7053134375L229.37862171875,109.9901734375L219.81201171875,103.9571734375L219.81201171875,52.3427734375" fill-rule="evenodd" fill="#FFFFFF" fill-opacity="1"/></g></mask><filter id="master_svg7_19_00396" filterUnits="objectBoundingBox" color-interpolation-filters="sRGB" x="0" y="0" width="16.247451782226562" height="17.441757202148438"><feFlood flood-opacity="0" result="BackgroundImageFix"/><feBlend mode="normal" in="SourceGraphic" in2="BackgroundImageFix" result="shape"/><feColorMatrix in="SourceAlpha" type="matrix" result="hardAlpha" values="0 0 0 0 0 0 0 0 0 0 0 0 0 0 0 0 0 0 127 0"/><feOffset dy="5" dx="0"/><feGaussianBlur stdDeviation="7"/><feComposite in2="hardAlpha" operator="arithmetic" k2="-1" k3="1"/><feColorMatrix type="matrix" values="0 0 0 0 0 0 0 0 0 0.6627449989318848 0 0 0 0 1 0 0 0 0.20000000298023224 0"/><feBlend mode="normal" in2="shape" result="effect1_innerShadow"/></filter><mask id="master_svg8_19_00404" style="mask-type:alpha" maskUnits="userSpaceOnUse"><g><path d="M135.71724640625,90.52914739257812L135.71724640625,108.19772739257812L130.51806640625,106.15902739257812L130.51806640625,88.71682739257812" fill-rule="evenodd" fill="#FFFFFF" fill-opacity="1"/></g></mask><mask id="master_svg9_19_00408" style="mask-type:alpha" maskUnits="userSpaceOnUse"><g><path d="M151.96529328125,90.52914739257812L151.96529328125,108.19772739257812L146.76611328125,106.15902739257812L146.76611328125,88.71682739257812" fill-rule="evenodd" fill="#FFFFFF" fill-opacity="1"/></g></mask><filter id="master_svga_19_00414" filterUnits="objectBoundingBox" color-interpolation-filters="sRGB" x="0" y="0" width="28.88689613342285" height="62.22481155395508"><feFlood flood-opacity="0" result="BackgroundImageFix"/><feBlend mode="normal" in="SourceGraphic" in2="BackgroundImageFix" result="shape"/><feColorMatrix in="SourceAlpha" type="matrix" result="hardAlpha" values="0 0 0 0 0 0 0 0 0 0 0 0 0 0 0 0 0 0 127 0"/><feOffset dy="5" dx="0"/><feGaussianBlur stdDeviation="7"/><feComposite in2="hardAlpha" operator="arithmetic" k2="-1" k3="1"/><feColorMatrix type="matrix" values="0 0 0 0 0 0 0 0 0 0.6627449989318848 0 0 0 0 1 0 0 0 0.20000000298023224 0"/><feBlend mode="normal" in2="shape" result="effect1_innerShadow"/></filter><mask id="master_svgb_19_00419" style="mask-type:alpha" maskUnits="userSpaceOnUse"><g><path d="M80.414266875,29.27733612060547L80.414266875,91.50243612060547L74.998046875,96.91313612060547L74.998046875,34.688186120605465" fill-rule="evenodd" fill="#FFFFFF" fill-opacity="1"/></g></mask><mask id="master_svgc_19_00422" style="mask-type:alpha" maskUnits="userSpaceOnUse"><g><path d="M51.52803640625,29.27733612060547L51.52803640625,91.50243612060547L46.11181640625,96.91313612060547L46.11181640625,34.688186120605465" fill-rule="evenodd" fill="#FFFFFF" fill-opacity="1"/></g></mask><filter id="master_svgd_19_00431" filterUnits="objectBoundingBox" color-interpolation-filters="sRGB" x="0" y="0" width="28.886890411376953" height="22.627384185791016"><feFlood flood-opacity="0" result="BackgroundImageFix"/><feBlend mode="normal" in="SourceGraphic" in2="BackgroundImageFix" result="shape"/><feColorMatrix in="SourceAlpha" type="matrix" result="hardAlpha" values="0 0 0 0 0 0 0 0 0 0 0 0 0 0 0 0 0 0 127 0"/><feOffset dy="5" dx="0"/><feGaussianBlur stdDeviation="7"/><feComposite in2="hardAlpha" operator="arithmetic" k2="-1" k3="1"/><feColorMatrix type="matrix" values="0 0 0 0 0 0 0 0 0 0.6627449989318848 0 0 0 0 1 0 0 0 0.20000000298023224 0"/><feBlend mode="normal" in2="shape" result="effect1_innerShadow"/></filter><mask id="master_svge_19_00436" style="mask-type:alpha" maskUnits="userSpaceOnUse"><g><path d="M96.04561453125,80.73291015625L96.04561453125,103.36031015625L90.62939453125,105.32771015624999L90.62939453125,82.70037015625" fill-rule="evenodd" fill="#FFFFFF" fill-opacity="1"/></g></mask><mask id="master_svgf_19_00439" style="mask-type:alpha" maskUnits="userSpaceOnUse"><g><path d="M67.15889578125,80.73291015625L67.15889578125,103.36031015625L61.74267578125,105.32771015624999L61.74267578125,82.70037015625" fill-rule="evenodd" fill="#FFFFFF" fill-opacity="1"/></g></mask><filter id="master_svgg_19_00447" filterUnits="objectBoundingBox" color-interpolation-filters="sRGB" x="0" y="0" width="29.321243286132812" height="17.525680541992188"><feFlood flood-opacity="0" result="BackgroundImageFix"/><feBlend mode="normal" in="SourceGraphic" in2="BackgroundImageFix" result="shape"/><feColorMatrix in="SourceAlpha" type="matrix" result="hardAlpha" values="0 0 0 0 0 0 0 0 0 0 0 0 0 0 0 0 0 0 127 0"/><feOffset dy="5" dx="0"/><feGaussianBlur stdDeviation="7"/><feComposite in2="hardAlpha" operator="arithmetic" k2="-1" k3="1"/><feColorMatrix type="matrix" values="0 0 0 0 0 0 0 0 0 0.6627449989318848 0 0 0 0 1 0 0 0 0.20000000298023224 0"/><feBlend mode="normal" in2="shape" result="effect1_innerShadow"/></filter><mask id="master_svgh_19_00451" style="mask-type:alpha" maskUnits="userSpaceOnUse"><g><path d="M38.89607312011719,88.71682739257812L38.89607312011719,106.24292739257812L29.321823120117188,112.31002739257812L29.321823120117188,94.78388739257812" fill-rule="evenodd" fill="#FFFFFF" fill-opacity="1"/></g></mask><mask id="master_svgi_19_00454" style="mask-type:alpha" maskUnits="userSpaceOnUse"><g><path d="M9.57425,88.71682739257812L9.57425,106.24292739257812L0,112.31002739257812L0,94.78388739257812" fill-rule="evenodd" fill="#FFFFFF" fill-opacity="1"/></g></mask><filter id="master_svgj_19_00463" filterUnits="objectBoundingBox" color-interpolation-filters="sRGB" x="0" y="0" width="29.025592803955078" height="41.20506286621094"><feFlood flood-opacity="0" result="BackgroundImageFix"/><feBlend mode="normal" in="SourceGraphic" in2="BackgroundImageFix" result="shape"/><feColorMatrix in="SourceAlpha" type="matrix" result="hardAlpha" values="0 0 0 0 0 0 0 0 0 0 0 0 0 0 0 0 0 0 127 0"/><feOffset dy="5" dx="0"/><feGaussianBlur stdDeviation="7"/><feComposite in2="hardAlpha" operator="arithmetic" k2="-1" k3="1"/><feColorMatrix type="matrix" values="0 0 0 0 0 0 0 0 0 0.6627449989318848 0 0 0 0 1 0 0 0 0.20000000298023224 0"/><feBlend mode="normal" in2="shape" result="effect1_innerShadow"/></filter><mask id="master_svgk_19_00467" style="mask-type:alpha" maskUnits="userSpaceOnUse"><g><path d="M119.15510859375,90.49214172363281L119.15510859375,131.69724172363283L117.34130859375,137.1014417236328L117.34130859375,95.89597172363281" fill-rule="evenodd" fill="#FFFFFF" fill-opacity="1"/></g></mask><mask id="master_svgl_19_00470" style="mask-type:alpha" maskUnits="userSpaceOnUse"><g><path d="M90.12912614746094,90.49214172363281L90.12912614746094,131.69724172363283L88.31492614746094,137.1014417236328L88.31492614746094,95.89597172363281" fill-rule="evenodd" fill="#FFFFFF" fill-opacity="1"/></g></mask><filter id="master_svgm_19_00479" filterUnits="objectBoundingBox" color-interpolation-filters="sRGB" x="0" y="0" width="29.02518081665039" height="82.9690170288086"><feFlood flood-opacity="0" result="BackgroundImageFix"/><feBlend mode="normal" in="SourceGraphic" in2="BackgroundImageFix" result="shape"/><feColorMatrix in="SourceAlpha" type="matrix" result="hardAlpha" values="0 0 0 0 0 0 0 0 0 0 0 0 0 0 0 0 0 0 127 0"/><feOffset dy="5" dx="0"/><feGaussianBlur stdDeviation="7"/><feComposite in2="hardAlpha" operator="arithmetic" k2="-1" k3="1"/><feColorMatrix type="matrix" values="0 0 0 0 0 0 0 0 0 0.6627449989318848 0 0 0 0 1 0 0 0 0.20000000298023224 0"/><feBlend mode="normal" in2="shape" result="effect1_innerShadow"/></filter><mask id="master_svgn_19_00483" style="mask-type:alpha" maskUnits="userSpaceOnUse"><g><path d="M126.18831171875,9.758281707763672L126.18831171875,92.72748170776367L124.37451171875,103.60858170776368L124.37451171875,20.63948170776367" fill-rule="evenodd" fill="#FFFFFF" fill-opacity="1"/></g></mask><mask id="master_svgo_19_00486" style="mask-type:alpha" maskUnits="userSpaceOnUse"><g><path d="M97.16233453125,9.758281707763672L97.16233453125,92.72748170776367L95.34814453125,103.60858170776368L95.34814453125,20.63948170776367" fill-rule="evenodd" fill="#FFFFFF" fill-opacity="1"/></g></mask></defs><g clip-path="url(#master_svg0_19_00362)"><g style="opacity:0.10000000149011612;"><path d="M166.43954609375,0L166.43954609375,93.0545L137.55224609375,93.0545L137.55224609375,0L166.43954609375,0Z" fill-rule="evenodd" fill="#00A9FF" fill-opacity="1"/></g><g style="opacity:0.10000000149011612;"><path d="M166.43954609375,0L171.85574609374999,4.72014L142.96886609375,4.72014L137.55224609375,0L166.43954609375,0Z" fill-rule="evenodd" fill="#00A9FF" fill-opacity="1"/></g><g style="opacity:0.10000000149011612;"><path d="M142.96886609375,4.72018L142.96886609375,97.7746L137.55224609375,93.0545L137.55224609375,0L142.96886609375,4.72018Z" fill-rule="evenodd" fill="#00A9FF" fill-opacity="1"/></g><g><path d="M137.328125,93.14131484375L142.573605,97.71221484375L143.194975,98.25371484375L143.194975,4.63350484375L137.328125,-0.47897115625L137.328125,93.14131484375ZM142.444975,96.60531484375L138.078125,92.80001484375L138.078125,1.16940084375L142.444975,4.97475484375L142.444975,96.60531484375Z" fill-rule="evenodd" fill="#00ABFF" fill-opacity="1"/></g><g style="opacity:0.30000001192092896;"><path d="M171.855673125,4.72018L171.855673125,97.7746L166.439453125,93.0545L166.439453125,0L171.855673125,4.72018Z" fill-rule="evenodd" fill="#00A9FF" fill-opacity="1"/></g><g mask="url(#master_svg1_19_00369)"><g><path d="M171.85669655273438,97.7746L171.67405655273438,98.0441L172.15646655273437,98.4646L172.15646655273437,97.7746L171.85669655273438,97.7746ZM166.44048555273437,93.0545L166.14071655273438,93.0545L166.14071655273438,93.2219L166.25782555273437,93.3239L166.44048555273437,93.0545ZM171.55693655273438,4.72018L171.55693655273438,97.7746L172.15646655273437,97.7746L172.15646655273437,4.72018L171.55693655273438,4.72018ZM172.03935655273438,97.5047L166.62314455273437,92.7846L166.25782555273437,93.3239L171.67405655273438,98.0441L172.03935655273438,97.5047ZM166.74025355273437,93.0545L166.74025355273437,0L166.14071655273438,0L166.14071655273438,93.0545L166.74025355273437,93.0545Z" fill="#00ABFF" fill-opacity="1"/></g></g><g style="opacity:0.30000001192092896;"><path d="M142.96886609375,97.7738909375L137.55224609375,93.0537109375L166.43954609375,93.0537109375L171.85574609374999,97.7738909375L142.96886609375,97.7738909375Z" fill-rule="evenodd" fill="#00A9FF" fill-opacity="1"/></g><g mask="url(#master_svg2_19_00373)"><g><path d="M166.43954609375,-0.00009803125000001911L166.62184609375,-0.26995943125L166.54104609375,-0.34033203125L166.43954609375,-0.34033203125L166.43954609375,-0.00009803125000001911ZM171.85574609374999,4.72003796875L171.85574609374999,5.06026796875L172.73824609375,5.06026796875L172.03844609375,4.45018796875L171.85574609374999,4.72003796875ZM137.55224609375,0.34013596874999996L166.43954609375,0.34013596874999996L166.43954609375,-0.34033203125L137.55224609375,-0.34033203125L137.55224609375,0.34013596874999996ZM166.25684609375,0.26976296875000005L171.67314609375,4.98990796875L172.03844609375,4.45018796875L166.62184609375,-0.26995943125L166.25684609375,0.26976296875000005ZM171.85574609374999,4.37980796875L142.66789609375,4.37980796875L142.66789609375,5.06026796875L171.85574609374999,5.06026796875L171.85574609374999,4.37980796875Z" fill="#00ABFF" fill-opacity="1"/></g></g><g><path d="M137.47802534375,93.65869340625L137.85302734375,93.65869140625L166.76512734375,93.65869140625L167.14012734375,93.65869340625L167.14012734375,92.90868940625L166.76512734375,92.90869140625L137.85302734375,92.90869140625L137.47802534375,92.90868940625L137.47802534375,93.65869340625Z" fill-rule="evenodd" fill="#00ABFF" fill-opacity="1"/></g><g><path d="M142.59423628125,97.81201371875L142.96923828125,97.81201171875L171.85653828125,97.81201171875L172.23153828125,97.81201371875L172.23153828125,97.06200971875L171.85653828125,97.06201171875L142.96923828125,97.06201171875L142.59423628125,97.06200971875L142.59423628125,97.81201371875Z" fill-rule="evenodd" fill="#00ABFF" fill-opacity="1"/></g><g filter="url(#master_svg3_19_00377)"><g><path d="M171.85613828125,4.719241142272949L171.85613828125,97.77354114227295L142.96923828125,97.77354114227295L142.96923828125,4.719241142272949L171.85613828125,4.719241142272949Z" fill-rule="evenodd" fill="#00A9FF" fill-opacity="0.10196100175380707"/></g></g><g style="opacity:0.10000000149011612;"><path d="M219.811315625,52.3427734375L219.811315625,103.9571734375L189.916015625,103.9571734375L189.916015625,52.3427734375L219.811315625,52.3427734375Z" fill-rule="evenodd" fill="#00A9FF" fill-opacity="1"/></g><g filter="url(#master_svg4_19_00380)"><g><path d="M229.37821015625,57.705467224121094L229.37821015625,109.3198672241211L199.48291015625,109.3198672241211L199.48291015625,57.705467224121094L229.37821015625,57.705467224121094Z" fill-rule="evenodd" fill="#00A9FF" fill-opacity="0.10196100175380707"/></g></g><g style="opacity:0.3499999940395355;"><path d="M229.37862171875,57.7053134375L229.37862171875,109.9901734375L219.81201171875,103.9571734375L219.81201171875,52.3427734375L229.37862171875,57.7053134375Z" fill-rule="evenodd" fill="#00A9FF" fill-opacity="1"/></g><g style="opacity:0.10000000149011612;"><path d="M219.811315625,52.3427734375L229.377915625,57.7053134375L199.482625625,57.7053134375L189.916015625,52.3427734375L219.811315625,52.3427734375Z" fill-rule="evenodd" fill="#00A9FF" fill-opacity="1"/></g><g style="opacity:0.30000001192092896;"><path d="M219.811315625,103.95751953125L229.377915625,109.99054953125L199.482625625,109.99054953125L189.916015625,103.95751953125L219.811315625,103.95751953125Z" fill-rule="evenodd" fill="#00A9FF" fill-opacity="1"/></g><g style="opacity:0.10000000149011612;"><path d="M199.482625625,57.7053134375L199.482625625,109.9901734375L189.916015625,103.9571734375L189.916015625,52.3427734375L199.482625625,57.7053134375Z" fill-rule="evenodd" fill="#00A9FF" fill-opacity="1"/></g><g mask="url(#master_svg5_19_00387)"><g><path d="M199.48307921875,109.9901734375L199.33759921875,110.2877734375L199.78279921875,110.56857343749999L199.78279921875,109.9901734375L199.48307921875,109.9901734375ZM189.91646821875,103.9571734375L189.61669921875,103.9571734375L189.61669921875,104.1576734375L189.77098721875,104.2547734375L189.91646821875,103.9571734375ZM199.18330921875,57.7053134375L199.18330921875,109.9901734375L199.78279921875,109.9901734375L199.78279921875,57.7053134375L199.18330921875,57.7053134375ZM199.62859921875,109.6925734375L190.06196121875,103.6600734375L189.77098721875,104.2547734375L199.33759921875,110.2877734375L199.62859921875,109.6925734375ZM190.21623621875,103.9571734375L190.21623621875,52.3427734375L189.61669921875,52.3427734375L189.61669921875,103.9571734375L190.21623621875,103.9571734375Z" fill="#00ABFF" fill-opacity="1"/></g></g><g mask="url(#master_svg6_19_00390)"><g><path d="M229.37858703125,109.9901734375L229.23270703125,110.2877734375L229.67830703125,110.56857343749999L229.67830703125,109.9901734375L229.37858703125,109.9901734375ZM219.81197603125,103.9571734375L219.51220703125,103.9571734375L219.51220703125,104.1576734375L219.66650703125,104.2547734375L219.81197603125,103.9571734375ZM229.07881703125,57.7053134375L229.07881703125,109.9901734375L229.67830703125,109.9901734375L229.67830703125,57.7053134375L229.07881703125,57.7053134375ZM229.52410703125,109.6925734375L219.95746903125,103.6600734375L219.66650703125,104.2547734375L229.23270703125,110.2877734375L229.52410703125,109.6925734375ZM220.11174403125,103.9571734375L220.11174403125,52.3427734375L219.51220703125,52.3427734375L219.51220703125,103.9571734375L220.11174403125,103.9571734375Z" fill="#00ABFF" fill-opacity="1"/></g></g><g><path d="M189.12221546875,52.1376953125L199.33421546875,57.8621153125L199.41964546875,57.9100053125L230.17170546875,57.9100053125L219.87430546875,52.1376953125L189.12221546875,52.1376953125ZM199.61551546875,57.1600053125L191.99399546875,52.8876953125L219.67840546875,52.8876953125L227.29990546875,57.1600053125L199.61551546875,57.1600053125Z" fill-rule="evenodd" fill="#00ABFF" fill-opacity="1"/></g><g><path d="M190.1396464375,104.33252153125L190.5146484375,104.33251953125L219.8120484375,104.33251953125L220.1870484375,104.33252153125L220.1870484375,103.58251753125L219.8120484375,103.58251953125L190.5146484375,103.58251953125L190.1396464375,103.58251753125L190.1396464375,104.33252153125Z" fill-rule="evenodd" fill="#00ABFF" fill-opacity="1"/></g><g><path d="M199.10790815625,110.031252L199.48291015625,110.03125L229.07921015624999,110.03125L229.45421015624999,110.031252L229.45421015624999,109.281248L229.07921015624999,109.28125L199.48291015625,109.28125L199.10790815625,109.281248L199.10790815625,110.031252Z" fill-rule="evenodd" fill="#00ABFF" fill-opacity="1"/></g><g style="opacity:0.10000000149011612;"><path d="M146.76556640625,88.716796875L146.76556640625,106.158996875L130.51806640625,106.158996875L130.51806640625,88.716796875L146.76556640625,88.716796875Z" fill-rule="evenodd" fill="#00A9FF" fill-opacity="1"/></g><g filter="url(#master_svg7_19_00396)"><g><path d="M151.96576171875,90.52873229980469L151.96576171875,107.97053229980469L135.71826171875,107.97053229980469L135.71826171875,90.52873229980469L151.96576171875,90.52873229980469Z" fill-rule="evenodd" fill="#00A9FF" fill-opacity="0.10196100175380707"/></g></g><g style="opacity:0.3499999940395355;"><path d="M151.96529328125,90.529116875L151.96529328125,108.19769687499999L146.76611328125,106.158996875L146.76611328125,88.716796875L151.96529328125,90.529116875Z" fill-rule="evenodd" fill="#00A9FF" fill-opacity="1"/></g><g style="opacity:0.10000000149011612;"><path d="M146.76546640625,88.716796875L151.96466640625,90.529116875L135.71724640625,90.529116875L130.51806640625,88.716796875L146.76546640625,88.716796875Z" fill-rule="evenodd" fill="#00A9FF" fill-opacity="1"/></g><g style="opacity:0.30000001192092896;"><path d="M146.76546640625,106.1591796875L151.96466640625,108.1978596875L135.71724640625,108.1978596875L130.51806640625,106.1591796875L146.76546640625,106.1591796875Z" fill-rule="evenodd" fill="#00A9FF" fill-opacity="1"/></g><g style="opacity:0.10000000149011612;"><path d="M135.71724640625,90.529116875L135.71724640625,108.19769687499999L130.51806640625,106.158996875L130.51806640625,88.716796875L135.71724640625,90.529116875Z" fill-rule="evenodd" fill="#00A9FF" fill-opacity="1"/></g><g style="opacity:0.699999988079071;"><g mask="url(#master_svg8_19_00404)"><g><path d="M135.71818828125,108.19772739257812L135.62026828125,108.51932739257812L136.01795828125,108.67492739257813L136.01795828125,108.19772739257812L135.71818828125,108.19772739257812ZM130.51900728125,106.15902739257812L130.21923828125,106.15902739257812L130.21923828125,106.40132739257812L130.42107228125,106.48062739257813L130.51900728125,106.15902739257812ZM135.41841828125,90.52914739257812L135.41841828125,108.19772739257812L136.01795828125,108.19772739257812L136.01795828125,90.52914739257812L135.41841828125,90.52914739257812ZM135.81610828125,107.87612739257813L130.61692928125,105.83742739257812L130.42107228125,106.48062739257813L135.62026828125,108.51932739257812L135.81610828125,107.87612739257813ZM130.81877528125,106.15902739257812L130.81877528125,88.71682739257812L130.21923828125,88.71682739257812L130.21923828125,106.15902739257812L130.81877528125,106.15902739257812Z" fill="#00ABFF" fill-opacity="1"/></g></g></g><g style="opacity:0.699999988079071;"><g mask="url(#master_svg9_19_00408)"><g><path d="M151.96525859375,108.19772739257812L151.86733859375,108.51932739257812L152.26502859375,108.67492739257813L152.26502859375,108.19772739257812L151.96525859375,108.19772739257812ZM146.76607759375,106.15902739257812L146.46630859375,106.15902739257812L146.46630859375,106.40132739257812L146.66815459375,106.48062739257813L146.76607759375,106.15902739257812ZM151.66548859375,90.52914739257812L151.66548859375,108.19772739257812L152.26502859375,108.19772739257812L152.26502859375,90.52914739257812L151.66548859375,90.52914739257812ZM152.06277859375,107.87612739257813L146.86399959375,105.83742739257812L146.66815459375,106.48062739257813L151.86733859375,108.51932739257812L152.06277859375,107.87612739257813ZM147.06584559375,106.15902739257812L147.06584559375,88.71682739257812L146.46630859375,88.71682739257812L146.46630859375,106.15902739257812L147.06584559375,106.15902739257812Z" fill="#00ABFF" fill-opacity="1"/></g></g></g><g style="opacity:0.699999988079071;"><path d="M129.30218984375,88.51171875L135.61638984375,90.71289875L135.67633984375,90.73379875L153.18098984375,90.73379875L146.80678984375,88.51171875L129.30218984375,88.51171875ZM135.80331984375,89.98379875L148.75118984375,89.98379875L146.67988984375,89.26171875L133.73198984375,89.26171875L135.80331984375,89.98379875Z" fill-rule="evenodd" fill="#00ABFF" fill-opacity="1"/></g><g style="opacity:0.699999988079071;"><path d="M130.46923628125,106.5390645L130.84423828125,106.5390625L146.76633828125,106.5390625L147.14133828125,106.5390645L147.14133828125,105.7890605L146.76633828125,105.7890625L130.84423828125,105.7890625L130.46923628125,105.7890605L130.46923628125,106.5390645Z" fill-rule="evenodd" fill="#00ABFF" fill-opacity="1"/></g><g style="opacity:0.699999988079071;"><path d="M135.34325971875,108.46484575L135.71826171875,108.46484375L151.80306171875,108.46484375L152.17806171875,108.46484575L152.17806171875,107.71484175L151.80306171875,107.71484375L135.71826171875,107.71484375L135.34325971875,107.71484175L135.34325971875,108.46484575Z" fill-rule="evenodd" fill="#00ABFF" fill-opacity="1"/></g><g style="opacity:0.10000000149011612;"><path d="M80.41424375,29.27734375L80.41424375,91.50244375L51.52734375,91.50244375L51.52734375,29.27734375L80.41424375,29.27734375Z" fill-rule="evenodd" fill="#00A9FF" fill-opacity="1"/></g><g filter="url(#master_svga_19_00414)"><g><path d="M74.99871640625,34.68794250488281L74.99871640625,96.91304250488281L46.11181640625,96.91304250488281L46.11181640625,34.68794250488281L74.99871640625,34.68794250488281Z" fill-rule="evenodd" fill="#00A9FF" fill-opacity="0.10196100175380707"/></g></g><g style="opacity:0.20000000298023224;"><path d="M51.52803640625,29.27734375L51.52803640625,91.50244375L46.11181640625,96.91314375L46.11181640625,34.688193749999996L51.52803640625,29.27734375Z" fill-rule="evenodd" fill="#00A9FF" fill-opacity="1"/></g><g style="opacity:0.10000000149011612;"><path d="M80.414266875,29.27734375L80.414266875,91.50244375L74.998046875,96.91314375L74.998046875,34.688193749999996L80.414266875,29.27734375Z" fill-rule="evenodd" fill="#00A9FF" fill-opacity="1"/></g><g mask="url(#master_svgb_19_00419)"><g><path d="M80.4142221875,91.50243612060547L80.6124721875,91.75783612060548L80.7139921875,91.65623612060547L80.7139921875,91.50243612060547L80.4142221875,91.50243612060547ZM74.9980111875,96.91313612060547L74.6982421875,96.91313612060547L74.6982421875,97.66613612060547L75.1962521875,97.16853612060547L74.9980111875,96.91313612060547ZM80.1144621875,29.27733612060547L80.1144621875,91.50243612060547L80.7139921875,91.50243612060547L80.7139921875,29.27733612060547L80.1144621875,29.27733612060547ZM80.2163821875,91.24703612060547L74.8001591875,96.65763612060547L75.1962521875,97.16853612060547L80.6124721875,91.75783612060548L80.2163821875,91.24703612060547ZM75.2977791875,96.91313612060547L75.2977791875,34.688186120605465L74.6982421875,34.688186120605465L74.6982421875,96.91313612060547L75.2977791875,96.91313612060547Z" fill="#00A9FF" fill-opacity="1"/></g></g><g mask="url(#master_svgc_19_00422)"><g><path d="M51.52800171875,91.50243612060547L51.72624171875,91.75783612060548L51.82777171875,91.65623612060547L51.82777171875,91.50243612060547L51.52800171875,91.50243612060547ZM46.11178071875,96.91313612060547L45.81201171875,96.91313612060547L45.81201171875,97.66613612060547L46.31002771875,97.16853612060547L46.11178071875,96.91313612060547ZM51.22823171875,29.27733612060547L51.22823171875,91.50243612060547L51.82777171875,91.50243612060547L51.82777171875,29.27733612060547L51.22823171875,29.27733612060547ZM51.33015171875,91.24703612060547L45.91393471875,96.65763612060547L46.31002771875,97.16853612060547L51.72624171875,91.75783612060548L51.33015171875,91.24703612060547ZM46.41154871875,96.91313612060547L46.41154871875,34.688186120605465L45.81201171875,34.688186120605465L45.81201171875,96.91313612060547L46.41154871875,96.91313612060547Z" fill="#00A9FF" fill-opacity="1"/></g></g><g style="opacity:0.20000000298023224;"><path d="M80.41531640625,91.50146484375L74.99871640625,96.91254484375L46.11181640625,96.91254484375L51.52803640625,91.50146484375L80.41531640625,91.50146484375Z" fill-rule="evenodd" fill="#00A9FF" fill-opacity="1"/></g><g style="opacity:0.10000000149011612;"><path d="M80.41531640625,29.27734375L74.99871640625,34.688193749999996L46.11181640625,34.688193749999996L51.52803640625,29.27734375L80.41531640625,29.27734375Z" fill-rule="evenodd" fill="#00A9FF" fill-opacity="1"/></g><g><path d="M51.42973734375,29.072265625L46.24424434375,34.252585625L45.60330834375,34.892885625L75.09777734375,34.892885625L80.92417734375,29.072265625L51.42973734375,29.072265625ZM47.41524634375,34.142885625L74.78727734374999,34.142885625L79.11227734375001,29.822265625L51.74017734375,29.822265625L47.41524634375,34.142885625Z" fill-rule="evenodd" fill="#00A9FF" fill-opacity="1"/></g><g><path d="M50.8515605,92.10791215625L51.2265625,92.10791015625L80.1194625,92.10791015625L80.4944625,92.10791215625L80.4944625,91.35790815625L80.1194625,91.35791015625L51.2265625,91.35791015625L50.8515605,91.35790815625L50.8515605,92.10791215625Z" fill-rule="evenodd" fill="#00A9FF" fill-opacity="1"/></g><g><path d="M45.73681440625,97.2880879375L46.11181640625,97.2880859375L74.99911640625,97.2880859375L75.37411640625,97.2880879375L75.37411640625,96.5380839375L74.99911640625,96.5380859375L46.11181640625,96.5380859375L45.73681440625,96.5380839375L45.73681440625,97.2880879375Z" fill-rule="evenodd" fill="#00A9FF" fill-opacity="1"/></g><g style="opacity:0.5;"><g style="opacity:0.10000000149011612;"><path d="M96.045103125,80.73291015625L96.045103125,103.36031015625L67.158203125,103.36031015625L67.158203125,80.73291015625L96.045103125,80.73291015625Z" fill-rule="evenodd" fill="#00A9FF" fill-opacity="1"/></g><g filter="url(#master_svgd_19_00431)"><g><path d="M90.62957578125,82.70068359375L90.62957578125,105.32808359375L61.74267578125,105.32808359375L61.74267578125,82.70068359375L90.62957578125,82.70068359375Z" fill-rule="evenodd" fill="#00A9FF" fill-opacity="0.10196100175380707"/></g></g><g style="opacity:0.20000000298023224;"><path d="M67.15889578125,80.73291015625L67.15889578125,103.36031015625L61.74267578125,105.32771015624999L61.74267578125,82.70037015625L67.15889578125,80.73291015625Z" fill-rule="evenodd" fill="#00A9FF" fill-opacity="1"/></g><g style="opacity:0.10000000149011612;"><path d="M96.04561453125,80.73291015625L96.04561453125,103.36031015625L90.62939453125,105.32771015624999L90.62939453125,82.70037015625L96.04561453125,80.73291015625Z" fill-rule="evenodd" fill="#00A9FF" fill-opacity="1"/></g><g mask="url(#master_svge_19_00436)"><g><path d="M96.046068125,103.36031015625L96.137598125,103.68421015625L96.345838125,103.60841015625L96.345838125,103.36031015625L96.046068125,103.36031015625ZM90.629847125,105.32771015624999L90.330078125,105.32771015624999L90.330078125,105.79361015625L90.721377125,105.65161015625L90.629847125,105.32771015624999ZM95.746298125,80.73291015625L95.746298125,103.36031015625L96.345838125,103.36031015625L96.345838125,80.73291015625L95.746298125,80.73291015625ZM95.954938125,103.03591015625L90.538322125,105.00381015625L90.721377125,105.65161015625L96.137598125,103.68421015625L95.954938125,103.03591015625ZM90.929615125,105.32771015624999L90.929615125,82.70037015625L90.330078125,82.70037015625L90.330078125,105.32771015624999L90.929615125,105.32771015624999Z" fill="#00A9FF" fill-opacity="1"/></g></g><g mask="url(#master_svgf_19_00439)"><g><path d="M67.15885109375,103.36031015625L67.24999109375,103.68421015625L67.45862109375,103.60841015625L67.45862109375,103.36031015625L67.15885109375,103.36031015625ZM61.74264009375,105.32771015624999L61.44287109375,105.32771015624999L61.44287109375,105.79361015625L61.83376809375,105.65161015625L61.74264009375,105.32771015624999ZM66.85909109375,80.73291015625L66.85909109375,103.36031015625L67.45862109375,103.36031015625L67.45862109375,80.73291015625L66.85909109375,80.73291015625ZM67.06733109375,103.03591015625L61.65110909375,105.00381015625L61.83376809375,105.65161015625L67.24999109375,103.68421015625L67.06733109375,103.03591015625ZM62.04240809375,105.32771015624999L62.04240809375,82.70037015625L61.44287109375,82.70037015625L61.44287109375,105.32771015624999L62.04240809375,105.32771015624999Z" fill="#00A9FF" fill-opacity="1"/></g></g><g style="opacity:0.20000000298023224;"><path d="M96.04577578125,103.3603515625L90.62957578125,105.3278115625L61.74267578125,105.3278115625L67.15889578125,103.3603515625L96.04577578125,103.3603515625Z" fill-rule="evenodd" fill="#00A9FF" fill-opacity="1"/></g><g style="opacity:0.10000000149011612;"><path d="M96.04577578125,80.73291015625L90.62957578125,82.70037015625L61.74267578125,82.70037015625L67.15889578125,80.73291015625L96.04577578125,80.73291015625Z" fill-rule="evenodd" fill="#00A9FF" fill-opacity="1"/></g><g><path d="M67.1158984375,80.52783203125L62.5741174375,82.17759203125L60.5714084375,82.90506203125L90.6718484375,82.90506203125L97.2162484375,80.52783203125L67.1158984375,80.52783203125ZM64.8328884375,82.15506203125L90.5398484375,82.15506203125L92.9548484375,81.27783203125L67.2478884375,81.27783203125L64.8328884375,82.15506203125Z" fill-rule="evenodd" fill="#00A9FF" fill-opacity="1"/></g><g><path d="M66.482419875,103.96533403125L66.857421875,103.96533203125L95.750321875,103.96533203125L96.125321875,103.96533403125L96.125321875,103.21533003125L95.750321875,103.21533203125L66.857421875,103.21533203125L66.482419875,103.21533003125L66.482419875,103.96533403125Z" fill-rule="evenodd" fill="#00A9FF" fill-opacity="1"/></g><g><path d="M61.36767378125,105.70263871875L61.74267578125,105.70263671875L90.62957578125,105.70263671875L91.00457578125,105.70263871875L91.00457578125,104.95263471875L90.62957578125,104.95263671875L61.74267578125,104.95263671875L61.36767378125,104.95263471875L61.36767378125,105.70263871875Z" fill-rule="evenodd" fill="#00A9FF" fill-opacity="1"/></g></g><g style="opacity:0.10000000149011612;"><path d="M38.895418750000005,88.716796875L38.895418750000005,106.242896875L9.57421875,106.242896875L9.57421875,88.716796875L38.895418750000005,88.716796875Z" fill-rule="evenodd" fill="#00A9FF" fill-opacity="1"/></g><g filter="url(#master_svgg_19_00447)"><g><path d="M29.3212,94.78370666503906L29.3212,112.30940666503906L0,112.30940666503906L0,94.78370666503906L29.3212,94.78370666503906Z" fill-rule="evenodd" fill="#00A9FF" fill-opacity="0.10196100175380707"/></g></g><g style="opacity:0.30000001192092896;"><path d="M38.89602734375,88.716796875L38.89602734375,106.242896875L29.32177734375,112.309996875L29.32177734375,94.783856875L38.89602734375,88.716796875Z" fill-rule="evenodd" fill="#00A9FF" fill-opacity="1"/></g><g mask="url(#master_svgh_19_00451)"><g><path d="M38.89506187011719,106.24292739257812L39.04114187011719,106.54012739257813L39.19484187011719,106.44302739257813L39.19484187011719,106.24292739257812L38.89506187011719,106.24292739257812ZM29.32081087011719,112.31002739257812L29.021041870117188,112.31002739257812L29.021041870117188,112.88932739257812L29.466897870117187,112.60712739257812L29.32081087011719,112.31002739257812ZM38.59529187011719,88.71682739257812L38.59529187011719,106.24292739257812L39.19484187011719,106.24292739257812L39.19484187011719,88.71682739257812L38.59529187011719,88.71682739257812ZM38.74893187011719,105.94632739257813L29.174682870117188,112.01292739257812L29.466897870117187,112.60712739257812L39.04114187011719,106.54012739257813L38.74893187011719,105.94632739257813ZM29.62057887011719,112.31002739257812L29.62057887011719,94.78388739257812L29.021041870117188,94.78388739257812L29.021041870117188,112.31002739257812L29.62057887011719,112.31002739257812Z" fill="#00A9FF" fill-opacity="1"/></g></g><g mask="url(#master_svgi_19_00454)"><g><path d="M9.5742553125,106.24292739257812L9.7203953125,106.54012739257813L9.8739953125,106.44302739257813L9.8739953125,106.24292739257812L9.5742553125,106.24292739257812ZM-0.00003568749999999232,112.31002739257812L-0.2998046875,112.31002739257812L-0.2998046875,112.88932739257812L0.14609031249999999,112.60712739257812L-0.00003568749999999232,112.31002739257812ZM9.2744853125,88.71682739257812L9.2744853125,106.24292739257812L9.8739953125,106.24292739257812L9.8739953125,88.71682739257812L9.2744853125,88.71682739257812ZM9.4281253125,105.94632739257813L-0.1461626875,112.01292739257812L0.14609031249999999,112.60712739257812L9.7203953125,106.54012739257813L9.4281253125,105.94632739257813ZM0.2997323125,112.31002739257812L0.2997323125,94.78388739257812L-0.2998046875,94.78388739257812L-0.2998046875,112.31002739257812L0.2997323125,112.31002739257812Z" fill="#00A9FF" fill-opacity="1"/></g></g><g style="opacity:0.10000000149011612;"><path d="M9.57425,88.716796875L9.57425,106.242896875L0,112.309996875L0,94.783856875L9.57425,88.716796875Z" fill-rule="evenodd" fill="#00A9FF" fill-opacity="1"/></g><g style="opacity:0.10000000149011612;"><path d="M38.8955,88.716796875L29.3212,94.783856875L0,94.783856875L9.57429,88.716796875L38.8955,88.716796875Z" fill-rule="evenodd" fill="#00A9FF" fill-opacity="1"/></g><g><path d="M9.504711875,88.51171875L0.375447875,94.29678875L-0.716198125,94.98853875L29.391271875,94.98853875L39.612171875,88.51171875L9.504711875,88.51171875ZM1.868541875,94.23853875L29.173671875,94.23853875L37.027471875,89.26171875L9.722331875,89.26171875L1.868541875,94.23853875Z" fill-rule="evenodd" fill="#00A9FF" fill-opacity="1"/></g><g style="opacity:0.30000001192092896;"><path d="M38.8955,106.2431640625L29.3212,112.3102240625L0,112.3102240625L9.57429,106.2431640625L38.8955,106.2431640625Z" fill-rule="evenodd" fill="#00A9FF" fill-opacity="1"/></g><g><path d="M9.19921675,106.6181660625L9.57421875,106.6181640625L38.29691875,106.6181640625L38.67191875,106.6181660625L38.67191875,105.8681620625L38.29691875,105.8681640625L9.57421875,105.8681640625L9.19921675,105.8681620625L9.19921675,106.6181660625Z" fill-rule="evenodd" fill="#00A9FF" fill-opacity="1"/></g><g><path d="M-0.0751973125,112.34814653125L0.2998046875,112.34814453125L29.6209046875,112.34814453125L29.9959046875,112.34814653125L29.9959046875,111.59814253125L29.6209046875,111.59814453125L0.2998046875,111.59814453125L-0.0751973125,111.59814253125L-0.0751973125,112.34814653125Z" fill-rule="evenodd" fill="#00A9FF" fill-opacity="1"/></g><g style="opacity:0.10000000149011612;"><path d="M119.15410625,90.4921875L119.15410625,131.69728750000002L90.12890625,131.69728750000002L90.12890625,90.4921875L119.15410625,90.4921875Z" fill-rule="evenodd" fill="#00AAFF" fill-opacity="1"/></g><g filter="url(#master_svgj_19_00463)"><g><path d="M117.34052614746093,95.8955078125L117.34052614746093,137.10060781250002L88.31492614746094,137.10060781250002L88.31492614746094,95.8955078125L117.34052614746093,95.8955078125Z" fill-rule="evenodd" fill="#00A9FF" fill-opacity="0.10196100175380707"/></g></g><g style="opacity:0.30000001192092896;"><path d="M119.15510859375,90.4921875L119.15510859375,131.69728750000002L117.34130859375,137.1014875L117.34130859375,95.8960175L119.15510859375,90.4921875Z" fill-rule="evenodd" fill="#00AAFF" fill-opacity="1"/></g><g mask="url(#master_svgk_19_00467)"><g><path d="M119.15409734375,131.69724172363283L119.43426734375,131.8183417236328L119.45385734375,131.7598417236328L119.45385734375,131.69724172363283L119.15409734375,131.69724172363283ZM117.34029634375,137.1014417236328L117.04052734375,137.1014417236328L117.62008434375,137.22264172363282L117.34029634375,137.1014417236328ZM118.85432734375,90.49214172363281L118.85432734375,131.69724172363283L119.45385734375,131.69724172363283L119.45385734375,90.49214172363281L118.85432734375,90.49214172363281ZM118.87391734375,131.5760417236328L117.06011674375,136.98034172363282L117.62008434375,137.22264172363282L119.43426734375,131.8183417236328L118.87391734375,131.5760417236328ZM117.64006434375,137.1014417236328L117.64006434375,95.89597172363281L117.04052734375,95.89597172363281L117.04052734375,137.1014417236328L117.64006434375,137.1014417236328Z" fill="#00A8FF" fill-opacity="1"/></g></g><g mask="url(#master_svgl_19_00470)"><g><path d="M90.12909145996093,131.69724172363283L90.40927145996093,131.8183417236328L90.42886145996094,131.7598417236328L90.42886145996094,131.69724172363283L90.12909145996093,131.69724172363283ZM88.31489045996094,137.1014417236328L88.01512145996094,137.1014417236328L88.59507545996094,137.22264172363282L88.31489045996094,137.1014417236328ZM89.82932145996094,90.49214172363281L89.82932145996094,131.69724172363283L90.42886145996094,131.69724172363283L90.42886145996094,90.49214172363281L89.82932145996094,90.49214172363281ZM89.84891145996093,131.5760417236328L88.03510725996094,136.98034172363282L88.59507545996094,137.22264172363282L90.40927145996093,131.8183417236328L89.84891145996093,131.5760417236328ZM88.61465845996094,137.1014417236328L88.61465845996094,95.89597172363281L88.01512145996094,95.89597172363281L88.01512145996094,137.1014417236328L88.61465845996094,137.1014417236328Z" fill="#00A8FF" fill-opacity="1"/></g></g><g style="opacity:0.10000000149011612;"><path d="M90.12914140625,90.4921875L90.12914140625,131.69728750000002L88.31494140625,137.1014875L88.31494140625,95.8960175L90.12914140625,90.4921875Z" fill-rule="evenodd" fill="#00AAFF" fill-opacity="1"/></g><g style="opacity:0.10000000149011612;"><path d="M119.15434140625,90.4921875L117.34014140625,95.8960175L88.31494140625,95.8960175L90.12914140625,90.4921875L119.15434140625,90.4921875Z" fill-rule="evenodd" fill="#00AAFF" fill-opacity="1"/></g><g><path d="M89.96292484375,90.287109375L88.17721284375,95.606359375L88.01125784375,96.100699375L117.50661484375,96.100699375L119.45831484375,90.287109375L89.96292484375,90.287109375ZM89.05417184375,95.350699375L116.96731484375,95.350699375L118.41541484375,91.037109375L90.50227484375,91.037109375L89.05417184375,95.350699375Z" fill-rule="evenodd" fill="#00A8FF" fill-opacity="1"/></g><g style="opacity:0.30000001192092896;"><path d="M119.15434140625,131.69677734375L117.34014140625,137.10060734375L88.31494140625,137.10060734375L90.12914140625,131.69677734375L119.15434140625,131.69677734375Z" fill-rule="evenodd" fill="#00AAFF" fill-opacity="1"/></g><g><path d="M89.75390425,132.24072465625L90.12890625,132.24072265625L118.54900625,132.24072265625L118.92400625,132.24072465625L118.92400625,131.49072065625L118.54900625,131.49072265625L90.12890625,131.49072265625L89.75390425,131.49072065625L89.75390425,132.24072465625Z" fill-rule="evenodd" fill="#00A8FF" fill-opacity="1"/></g><g><path d="M88.24267378125,137.138673875L88.61767578125,137.138671875L117.34037578125,137.138671875L117.71537578125,137.138673875L117.71537578125,136.388669875L117.34037578125,136.388671875L88.61767578125,136.388671875L88.24267378125,136.388669875L88.24267378125,137.138673875Z" fill-rule="evenodd" fill="#00A8FF" fill-opacity="1"/></g><g style="opacity:0.10000000149011612;"><path d="M126.1882859375,9.75830078125L126.1882859375,92.72750078125L97.1630859375,92.72750078125L97.1630859375,9.75830078125L126.1882859375,9.75830078125Z" fill-rule="evenodd" fill="#00AAFF" fill-opacity="1"/></g><g filter="url(#master_svgm_19_00479)"><g><path d="M124.37334453125,20.640090942382812L124.37334453125,103.60929094238281L95.34814453125,103.60929094238281L95.34814453125,20.640090942382812L124.37334453125,20.640090942382812Z" fill-rule="evenodd" fill="#00A9FF" fill-opacity="0.10196100175380707"/></g></g><g style="opacity:0.30000001192092896;"><path d="M126.18831171875,9.75830078125L126.18831171875,92.72750078125L124.37451171875,103.60860078125L124.37451171875,20.63950078125L126.18831171875,9.75830078125Z" fill-rule="evenodd" fill="#00AAFF" fill-opacity="1"/></g><g mask="url(#master_svgn_19_00483)"><g><path d="M126.18730046875,92.72748170776367L126.48187046875,92.79048170776367L126.48706046875,92.75918170776367L126.48706046875,92.72748170776367L126.18730046875,92.72748170776367ZM124.37349946875,103.60858170776368L124.07373046875,103.60858170776368L124.66807146875,103.67168170776367L124.37349946875,103.60858170776368ZM125.88753046875,9.758281707763672L125.88753046875,92.72748170776367L126.48706046875,92.72748170776367L126.48706046875,9.758281707763672L125.88753046875,9.758281707763672ZM125.89313046875,92.66388170776368L124.07892664875,103.54508170776367L124.66807146875,103.67168170776367L126.48187046875,92.79048170776367L125.89313046875,92.66388170776368ZM124.67326746875,103.60858170776368L124.67326746875,20.63948170776367L124.07373046875,20.63948170776367L124.07373046875,103.60858170776368L124.67326746875,103.60858170776368Z" fill="#00A8FF" fill-opacity="1"/></g></g><g mask="url(#master_svgo_19_00486)"><g><path d="M97.16327640625,92.72748170776367L97.45784640625,92.79048170776367L97.46304640625,92.75918170776367L97.46304640625,92.72748170776367L97.16327640625,92.72748170776367ZM95.34908540625,103.60858170776368L95.04931640625,103.60858170776368L95.64365740625,103.67168170776367L95.34908540625,103.60858170776368ZM96.86350640625,9.758281707763672L96.86350640625,92.72748170776367L97.46304640625,92.72748170776367L97.46304640625,9.758281707763672L96.86350640625,9.758281707763672ZM96.86870640625,92.66388170776368L95.05451258625,103.54508170776367L95.64365740625,103.67168170776367L97.45784640625,92.79048170776367L96.86870640625,92.66388170776368ZM95.64885340625,103.60858170776368L95.64885340625,20.63948170776367L95.04931640625,20.63948170776367L95.04931640625,103.60858170776368L95.64885340625,103.60858170776368Z" fill="#00A8FF" fill-opacity="1"/></g></g><g style="opacity:0.10000000149011612;"><path d="M97.16233453125,9.75830078125L97.16233453125,92.72750078125L95.34814453125,103.60860078125L95.34814453125,20.63950078125L97.16233453125,9.75830078125Z" fill-rule="evenodd" fill="#00AAFF" fill-opacity="1"/></g><g style="opacity:0.10000000149011612;"><path d="M126.18754453125,9.75830078125L124.37334453125,20.63950078125L95.34814453125,20.63950078125L97.16233453125,9.75830078125L126.18754453125,9.75830078125Z" fill-rule="evenodd" fill="#00AAFF" fill-opacity="1"/></g><g><path d="M96.96957515625,9.55419921875L95.15989115625,20.408499218750002L95.08708715625,20.84509921875L124.56728515625,20.84509921875L126.44978515625,9.55419921875L96.96957515625,9.55419921875ZM95.97248315625,20.09509921875L123.93198515625,20.09509921875L125.56438515625,10.30419921875L97.60488515625,10.30419921875L95.97248315625,20.09509921875Z" fill-rule="evenodd" fill="#00A8FF" fill-opacity="1"/></g><g style="opacity:0.30000001192092896;"><path d="M126.18754453125,92.72802734375L124.37334453125,103.60922734375L95.34814453125,103.60922734375L97.16233453125,92.72802734375L126.18754453125,92.72802734375Z" fill-rule="evenodd" fill="#00AAFF" fill-opacity="1"/></g><g><path d="M96.7880839375,93.44189653125L97.1630859375,93.44189453125L125.5831859375,93.44189453125L125.9581859375,93.44189653125L125.9581859375,92.69189253125L125.5831859375,92.69189453125L97.1630859375,92.69189453125L96.7880839375,92.69189253125L96.7880839375,93.44189653125Z" fill-rule="evenodd" fill="#00A8FF" fill-opacity="1"/></g><g><path d="M95.27685346875,103.30420121875L95.65185546875,103.30419921875L124.37455546875,103.30419921875L124.74955546875,103.30420121875L124.74955546875,102.55419721875L124.37455546875,102.55419921875L95.65185546875,102.55419921875L95.27685346875,102.55419721875L95.27685346875,103.30420121875Z" fill-rule="evenodd" fill="#00A8FF" fill-opacity="1"/></g><g style="opacity:0.699999988079071;"><path d="M153.7099609375,113.72802734375L196.1123609375,113.72802734375L218.3084609375,129.35702734375L175.9060609375,129.35702734375L153.7099609375,113.72802734375Z" fill="#0694DA" fill-opacity="0.20000000298023224"/><path d="M152.5260409375,113.35302734375L175.6901609375,129.66362734375L175.7872609375,129.73202734375L219.4923609375,129.73202734375L196.2311609375,113.35302734375L152.5260409375,113.35302734375ZM176.0247609375,128.98202734375L154.8938809375,114.10302734375L195.9936609375,114.10302734375L217.1245609375,128.98202734375L176.0247609375,128.98202734375Z" fill-rule="evenodd" fill="#0694DA" fill-opacity="1"/></g><g><path d="M220.17529296875,115.501953125L248.59019296875,115.501953125L258.10399296875,121.372133125L229.12958296875001,121.372133125L220.17529296875,115.501953125Z" fill="#0694DA" fill-opacity="0.20000000298023224"/><path d="M218.91929296875,115.126953125L228.92398296875,121.685743125L229.01762296875,121.747133125L259.42589296875,121.747133125L248.69649296875,115.126953125L218.91929296875,115.126953125ZM229.24154296875,120.997133125L221.43129296875,115.876953125L248.48379296875,115.876953125L256.78209296875,120.997133125L229.24154296875,120.997133125Z" fill-rule="evenodd" fill="#0694DA" fill-opacity="1"/></g><g><path d="M130.8955078125,131.4716796875L152.8981078125,131.4716796875L156.7148078125,135.5671796875L134.7117578125,135.5671796875L130.8955078125,131.4716796875Z" fill="#0694DA" fill-opacity="0.20000000298023224"/><path d="M130.0335078125,131.0966796875L134.4374078125,135.8228296875L134.5486278125,135.9421796875L157.5768078125,135.9421796875L153.06120781250002,131.0966796875L130.0335078125,131.0966796875ZM134.8748978125,135.1921796875L131.7575078125,131.8466796875L152.7350078125,131.8466796875L155.8527078125,135.1921796875L134.8748978125,135.1921796875Z" fill-rule="evenodd" fill="#0694DA" fill-opacity="1"/></g><g><path d="M72.3085578125,127.92236328125L50.3055078125,127.92236328125L46.4892578125,132.01832328125L68.4918578125,132.01832328125L72.3085578125,127.92236328125Z" fill="#0694DA" fill-opacity="0.20000000298023224"/><path d="M45.6273238125,132.39332328125L68.6550578125,132.39332328125L68.7662578125,132.27397328125L73.1705578125,127.54736328125L50.1423578125,127.54736328125L45.6273238125,132.39332328125ZM68.3287578125,131.64332328125L47.3511918125,131.64332328125L50.4686678125,128.29736328125L71.4465578125,128.29736328125L68.3287578125,131.64332328125Z" fill-rule="evenodd" fill="#0694DA" fill-opacity="1"/></g><g style="opacity:0.699999988079071;"><path d="M64.45010546875,111.06689453125L42.32563546875,111.06689453125L37.93310546875,115.16240453125L60.05790546875,115.16240453125L64.45010546875,111.06689453125Z" fill="#0694DA" fill-opacity="0.20000000298023224"/><path d="M36.98101246875,115.53740453125L60.20560546875,115.53740453125L60.31370546875,115.43667453125L65.40220546875,110.69189453125L42.17793546875,110.69189453125L36.98101246875,115.53740453125ZM59.91020546875,114.78740453125L38.88519846875,114.78740453125L42.47333546875,111.44189453125L63.49810546875,111.44189453125L59.91020546875,114.78740453125Z" fill-rule="evenodd" fill="#0694DA" fill-opacity="1"/></g><g><path d="M39.3539828125,119.0517578125L9.6502328125,119.0517578125L0.5048828125,125.8087978125L30.2086828125,125.8087978125L39.3539828125,119.0517578125Z" fill="#0694DA" fill-opacity="0.20000000298023224"/><path d="M-0.6337171875000001,126.1837978125L30.3321828125,126.1837978125L30.4314828125,126.1104078125L40.4925828125,118.6767578125L9.5267228125,118.6767578125L-0.6337171875000001,126.1837978125ZM30.0850828125,125.4337978125L1.6434828125,125.4337978125L9.7737328125,119.4267578125L38.2153828125,119.4267578125L30.0850828125,125.4337978125Z" fill-rule="evenodd" fill="#0694DA" fill-opacity="1"/></g></g></svg>