<svg xmlns="http://www.w3.org/2000/svg" xmlns:xlink="http://www.w3.org/1999/xlink" fill="none" version="1.1" width="29.33333396911621" height="24.000022888183594" viewBox="0 0 29.33333396911621 24.000022888183594"><g><path d="M8.81545,0.0916704C12.9175,0.828297,11.8109,5.99849,9.35911,6.41837C9.8196,6.70506,10.0714,7.19804,10.1646,7.78279C10.9993,7.75031,11.6616,7.93467,12.1513,8.33506C12.3061,8.4447,11.7309,9.08631,11.6477,9.04732C11.1718,8.82154,10.6436,8.85241,10.1523,9.06519C10.1407,9.14456,10.1273,9.22364,10.1122,9.30234C14.2366,12,14.4568,17.6412,14.2366,23.2913C14.2237,23.6971,13.9005,24.0146,13.5158,23.9995C13.1316,23.9794,12.8353,23.6348,12.8536,23.2295C13.0438,18.3566,11.9588,12.2009,9.2667,11.4505C9.00565,11.8549,8.70918,12.1766,8.4027,12.3617C8.41502,12.4283,8.42965,12.4965,8.44736,12.5648L8.37575,12.5575C12.0689,12.8027,11.8818,19.7101,7.7189,20.3688C4.25444,20.917,1.66168,18.3871,0.540486,15.2879C-1.42468,9.85298,2.11293,-1.11276,8.81545,0.0916704ZM20.5172,0.0917156C27.2197,-1.11271,30.7581,9.85386,28.7929,15.2872C27.6717,18.3872,25.079,20.917,21.6137,20.3688C17.4508,19.7101,17.2645,12.8027,20.9577,12.5575L20.8853,12.564C20.9031,12.4969,20.9185,12.4292,20.9315,12.3609C20.6235,12.1766,20.3278,11.855,20.0667,11.4513C17.3746,12.2009,16.2888,18.3557,16.4798,23.2295C16.4981,23.6348,16.2018,23.9794,15.8176,23.9995C15.4329,24.0146,15.1097,23.6971,15.0968,23.2913C14.8758,17.6412,15.0968,12,19.2212,9.30319C19.206,9.22422,19.1927,9.14492,19.1811,9.06527C18.6899,8.85249,18.1616,8.82151,17.6857,9.04729C17.6025,9.08627,17.0273,8.44479,17.1821,8.33515C17.6718,7.93475,18.3341,7.75039,19.1688,7.78287C19.262,7.19812,19.5138,6.70498,19.9743,6.41829C17.5225,5.99841,16.4159,0.828342,20.5172,0.0917156Z" fill="#41E3FF" fill-opacity="1"/></g></svg>