<svg xmlns="http://www.w3.org/2000/svg" xmlns:xlink="http://www.w3.org/1999/xlink" fill="none" version="1.1" width="29.333335876464844" height="27.999961853027344" viewBox="0 0 29.333335876464844 27.999961853027344"><g><path d="M15,0L14.3333,0C13.781,0,13.3333,0.447715,13.3333,1L13.3333,6.66667L13.3333,6.6763Q13.3302,8.58907,12.1011,9.70407C11.7351,8.76068,11.3679,8.03333,10.9634,7.48376C10.467,6.81246,9.91109,6.39286,9.27575,6.24606C8.66022,6.0992,7.98521,6.2041,7.27045,6.5607C6.65496,6.8754,6.01962,7.35788,5.285,8.07114C0.996598,12.2458,-0.671155,17.7418,0.242169,24.9162C0.480392,26.8881,1.69151,28,3.4983,28C3.71667,28,3.93508,27.979,4.1535,27.958C6.49611,27.6434,8.66022,26.4057,10.2486,24.4967C11.837,22.5878,12.7103,20.1544,12.6905,17.6789C12.6905,16.7769,12.7501,15.5601,12.8096,14.5951C12.8493,13.8821,12.889,13.2527,12.889,12.8542C12.889,12.8384,12.8893,12.8049,12.8897,12.762C12.8904,12.6747,12.8915,12.5493,12.8912,12.4566Q13.9641,11.8206,14.6667,10.934Q15.3779,11.8315,16.4686,12.4722C16.4529,12.6072,16.4443,12.7354,16.4443,12.8542C16.4443,13.2317,16.484,13.8611,16.5237,14.5951C16.5833,15.5601,16.6429,16.7559,16.6429,17.6789C16.6429,20.1544,17.4966,22.5878,19.0849,24.4967C20.6731,26.4057,22.8372,27.6434,25.18,27.958C25.4183,27.979,25.6367,28,25.8551,28C27.6618,28,28.8728,26.8881,29.0912,24.9372C30.0045,17.7628,28.3367,12.2458,24.0483,8.07114C23.3137,7.35788,22.6585,6.8754,22.0629,6.5607C21.368,6.2041,20.6929,6.0992,20.0576,6.24606C19.4423,6.39286,18.8665,6.81246,18.3702,7.48376C17.9656,8.03336,17.5984,8.76074,17.2323,9.7042Q16.0031,8.58922,16,6.67642L16,6.66667L16,0.999999C16,0.447715,15.5523,0,15,0" fill-rule="evenodd" fill="#41E3FF" fill-opacity="1"/></g></svg>