<svg xmlns="http://www.w3.org/2000/svg" xmlns:xlink="http://www.w3.org/1999/xlink" fill="none" version="1.1" width="29.33333396911621" height="26.666675567626953" viewBox="0 0 29.33333396911621 26.666675567626953"><g><path d="M10.1723,1.89725Q8.79383,3.06055,7.65104,5.41797Q7.1899,6.36923,6.85159,7.99154Q6.55951,9.39219,6.16803,10.0153Q5.4851,11.1023,3.64901,12.1844Q1.48586,13.4593,0.532345,15.7212Q-0.525835,18.2315,0.519404,20.6186Q1.65978,23.223,5.04555,24.7656Q8.67732,26.4203,14.609,26.6654L14.6118,26.6655C14.6449,26.6669,14.6779,26.667,14.7108,26.6659L14.7215,26.6655L14.7244,26.6654Q20.656,26.4203,24.2878,24.7656Q27.6736,23.223,28.8139,20.6186Q29.8592,18.2315,28.801,15.7212Q27.8475,13.4593,25.6843,12.1844Q23.8482,11.1023,23.1653,10.0153Q22.7738,9.39221,22.4817,7.99154Q22.1434,6.36919,21.6823,5.41797Q20.5395,3.06062,19.161,1.89725C17.9805,0.901024,16.2265,0.0892109,14.6667,0C13.1068,0.0892098,11.3529,0.901024,10.1723,1.89725ZM16.6667,19.6108L16.6667,22C16.6667,23.1046,15.7712,24,14.6667,24C13.5621,24,12.6667,23.1046,12.6667,22L12.6667,19.6108C10.652,18.7958,9.33333,16.8399,9.33333,14.6667C9.33333,11.7211,11.7211,9.33333,14.6667,9.33333C17.6122,9.33333,20,11.7211,20,14.6667C20,16.8399,18.6813,18.7958,16.6667,19.6108ZM14.6667,17.3333C16.1394,17.3333,17.3333,16.1394,17.3333,14.6667C17.3333,13.1939,16.1394,12,14.6667,12C13.1939,12,12,13.1939,12,14.6667C12,16.1394,13.1939,17.3333,14.6667,17.3333Z" fill="#41E3FF" fill-opacity="1"/></g></svg>