<svg xmlns="http://www.w3.org/2000/svg" xmlns:xlink="http://www.w3.org/1999/xlink" fill="none" version="1.1" width="26.666667938232422" height="26.666667938232422" viewBox="0 0 26.666667938232422 26.666667938232422"><g><path d="M0,24L0,2.66667Q0,1.5621,0.781049,0.781049Q1.5621,0,2.66667,0L24,0Q25.1046,0,25.8856,0.781049Q26.6667,1.5621,26.6667,2.66667L26.6667,24Q26.6667,25.1046,25.8856,25.8856Q25.1046,26.6667,24,26.6667L2.66667,26.6667Q1.5621,26.6667,0.781049,25.8856Q0,25.1046,0,24ZM6.78105,8.66667L9.72386,5.72386C9.7731,5.67462,9.82612,5.62932,9.88244,5.58836C10.1684,5.38037,10.5253,5.2945,10.8746,5.34966C11.2239,5.40481,11.537,5.59646,11.745,5.88244L16.0715,11.8314L18.309,9.14643C18.5624,8.84244,18.9376,8.66667,19.3333,8.66667L24,8.66667L24,2.66667L2.66667,2.66667L2.66667,8.66667L6.78105,8.66667ZM24,17.3333L24,11.3333L19.9578,11.3333L17.0243,14.8536C16.7979,15.1252,16.4729,15.2958,16.1207,15.3279C15.7685,15.3599,15.4181,15.2507,15.1464,15.0243C15.0619,14.9539,14.9864,14.8732,14.9217,14.7842L10.5061,8.71284L8.27614,10.9428C8.02609,11.1929,7.68696,11.3333,7.33333,11.3333L2.66667,11.3333L2.66667,17.3333L24,17.3333ZM5.33333,20.6667C4.59695,20.6667,4,21.2636,4,22C4,22.7364,4.59695,23.3333,5.33333,23.3333L6.66667,23.3333C7.40305,23.3333,8,22.7364,8,22C8,21.2636,7.40305,20.6667,6.66667,20.6667L5.33333,20.6667ZM12,20.6667L10.6667,20.6667C9.93029,20.6667,9.33333,21.2636,9.33333,22C9.33333,22.7364,9.93029,23.3333,10.6667,23.3333L12,23.3333C12.7364,23.3333,13.3333,22.7364,13.3333,22C13.3333,21.2636,12.7364,20.6667,12,20.6667Z" fill="#41E3FF" fill-opacity="1"/></g></svg>