<svg xmlns="http://www.w3.org/2000/svg" xmlns:xlink="http://www.w3.org/1999/xlink" fill="none" version="1.1" width="24" height="66" viewBox="0 0 24 66"><defs><linearGradient x1="0.5" y1="1" x2="0.5" y2="0" id="master_svg0_4_10316"><stop offset="0%" stop-color="#6C95E6" stop-opacity="0.10000000149011612"/><stop offset="100%" stop-color="#6C95E6" stop-opacity="1"/></linearGradient><linearGradient x1="0.5002632737159729" y1="1" x2="0.5002632737159729" y2="-3.3306690738754696e-16" id="master_svg1_4_09815"><stop offset="0%" stop-color="#6C95E6" stop-opacity="0.10000000149011612"/><stop offset="100%" stop-color="#6C95E6" stop-opacity="1"/></linearGradient></defs><g><g><path d="M24,12L12,0L0,12L12,5.14999L24,12Z" fill="url(#master_svg0_4_10316)" fill-opacity="1"/></g><g><path d="M21.49,17.119882812500002L12,7.6298828125L2.5,17.119882812500002L12,11.689882812499999L21.49,17.119882812500002Z" fill="url(#master_svg1_4_09815)" fill-opacity="1"/></g><g style="opacity:0.10000000149011612;"><path d="M16,20.098549030761717L16,66.00001903076172L8,66.00001903076172L8,20.098549030761717C8.0743303,20.02015603076172,8.53604,19.947242030761718,9.28492,19.89564253076172C10.0338,19.84404253076172,11.0094,19.817913960761718,12,19.822927370761718C12.9906,19.817913960761718,13.9662,19.84404253076172,14.7151,19.89564253076172C15.464,19.947242030761718,15.925699999999999,20.02015603076172,16,20.098549030761717Z" fill="#6C95E6" fill-opacity="1"/></g><g style="opacity:0.5;"><path d="M11.5,66L11.5,28L12.5,28L12.5,66L11.5,66Z" fill-rule="evenodd" fill="#6C95E6" fill-opacity="1"/></g></g></svg>