<svg xmlns="http://www.w3.org/2000/svg" xmlns:xlink="http://www.w3.org/1999/xlink" fill="none" version="1.1" width="190" height="133" viewBox="0 0 190 133"><defs><filter id="master_svg0_19_03707" filterUnits="objectBoundingBox" color-interpolation-filters="sRGB" x="0" y="0" width="188" height="132"><feFlood flood-opacity="0" result="BackgroundImageFix"/><feBlend mode="normal" in="SourceGraphic" in2="BackgroundImageFix" result="shape"/><feGaussianBlur in="BackgroundImage" stdDeviation="5"/><feComposite in2="SourceAlpha" operator="in" result="effect1_foregroundBlur"/><feBlend mode="normal" in="SourceGraphic" in2="effect1_foregroundBlur" result="shape"/></filter><linearGradient x1="0.5" y1="0" x2="0.5" y2="1" id="master_svg1_4_17954"><stop offset="0%" stop-color="#5EBCF5" stop-opacity="0.4000000059604645"/><stop offset="100%" stop-color="#5EBCF5" stop-opacity="1"/></linearGradient></defs><g filter="url(#master_svg0_19_03707)"><rect x="1" y="1" width="188" height="132" rx="0" fill="#092331" fill-opacity="0.699999988079071"/><path d="M189,1L1,1L1,133L189,133L189,1ZM2,132L2,2L188,2L188,132L2,132Z" fill-rule="evenodd" fill="url(#master_svg1_4_17954)" fill-opacity="1"/><g><path d="M2,0L0,0L0,10L2,10L2,2L16,2L16,0L2,0Z" fill-rule="evenodd" fill="#9FE5FC" fill-opacity="1"/></g><g transform="matrix(-1,0,0,1,380,0)"><path d="M192,0L190,0L190,10L192,10L192,2L206,2L206,0L192,0Z" fill-rule="evenodd" fill="#9FE5FC" fill-opacity="1"/></g><g><path d="M177,49.5L13,49.5L13,48.5L177,48.5L177,49.5Z" fill-rule="evenodd" fill="#4D4D4D" fill-opacity="1"/></g></g></svg>