<svg xmlns="http://www.w3.org/2000/svg" xmlns:xlink="http://www.w3.org/1999/xlink" fill="none" version="1.1" width="21.33333396911621" height="29.33333396911621" viewBox="0 0 21.33333396911621 29.33333396911621"><g><path d="M0,24L0,2.66667Q0,1.5621,0.781049,0.781087Q1.5621,0.0000386238,2.66667,0L18.6667,0Q19.7712,0,20.5523,0.781087Q21.3333,1.56214,21.3333,2.66667L21.3333,24Q21.3333,25.1046,20.5523,25.8856Q19.7712,26.6666,18.6667,26.6667L14.6667,26.6667L14.6667,28C14.6667,28.7364,14.0697,29.3333,13.3333,29.3333L8,29.3333C7.26362,29.3333,6.66667,28.7364,6.66667,28L6.66667,26.6667L2.66667,26.6667Q1.5621,26.6667,0.781049,25.8856Q4.76837e-7,25.1045,0,24ZM2.66667,24L18.6667,24L18.6667,2.66667L2.66667,2.66667L2.66667,24ZM4,22.6667L17.3333,22.6667L17.3333,10.6666C14.0417,12.3125,12.5378,11.5204,10.976,10.6979C9.3747,9.85455,7.71251,8.97914,4,10.6666L4,22.6667Z" fill="#41E3FF" fill-opacity="1"/></g></svg>